<svg xmlns="http://www.w3.org/2000/svg" xmlns:xlink="http://www.w3.org/1999/xlink" viewBox="0 0 20 20"><g fill="none"><path d="M3 5a2 2 0 0 1 2-2h2a.5.5 0 0 1 0 1H5a1 1 0 0 0-1 1v2a.5.5 0 0 1-1 0V5zm9.5-1.5A.5.5 0 0 1 13 3h2a2 2 0 0 1 2 2v2a.5.5 0 0 1-1 0V5a1 1 0 0 0-1-1h-2a.5.5 0 0 1-.5-.5zm-9 9a.5.5 0 0 1 .5.5v2a1 1 0 0 0 1 1h2a.5.5 0 0 1 0 1H5a2 2 0 0 1-2-2v-2a.5.5 0 0 1 .5-.5zm13 0a.5.5 0 0 1 .5.5v2a2 2 0 0 1-2 2h-2a.5.5 0 0 1 0-1h2a1 1 0 0 0 1-1v-2a.5.5 0 0 1 .5-.5z" fill="currentColor"/></g></svg>