<svg xmlns="http://www.w3.org/2000/svg" xmlns:xlink="http://www.w3.org/1999/xlink" viewBox="0 0 24 24"><g fill="none"><path d="M8.5 3.75a.75.75 0 0 0-1.5 0v2.5a.75.75 0 0 1-.75.75h-2.5a.75.75 0 0 0 0 1.5h2.5A2.25 2.25 0 0 0 8.5 6.25v-2.5zm0 16.5a.75.75 0 0 1-1.5 0v-2.5a.75.75 0 0 0-.75-.75h-2.5a.75.75 0 0 1 0-1.5h2.5a2.25 2.25 0 0 1 2.25 2.25v2.5zM16.25 3a.75.75 0 0 0-.75.75v2.5a2.25 2.25 0 0 0 2.25 2.25h2.5a.75.75 0 0 0 0-1.5h-2.5a.75.75 0 0 1-.75-.75v-2.5a.75.75 0 0 0-.75-.75zm-.75 17.25a.75.75 0 0 0 1.5 0v-2.5a.75.75 0 0 1 .75-.75h2.5a.75.75 0 0 0 0-1.5h-2.5a2.25 2.25 0 0 0-2.25 2.25v2.5z" fill="currentColor"/></g></svg>